<svg width="32" height="32" viewBox="107 107 786 786" fill="none" xmlns="http://www.w3.org/2000/svg">
  <rect width="32" height="32" rx="6" fill="#f7f6f4"/>
  <path d="M892.95 447.19L552.77 107.06V106.92H106.92V552.81L447.19 893.07H893.08L892.95 447.18V447.19ZM868.91 447.19H552.78V131.19L868.91 447.18V447.19ZM123.99 123.99H535.71V447.19H447.19V535.75H123.99V123.99ZM535.71 464.25V535.75H464.25V464.25H535.71ZM131.04 552.81H447.19V868.94L131.04 552.81ZM876.01 876.01H464.25V552.81H552.77V464.25H876.01V876.01Z" fill="#FF4931"/>
  <path d="M290.55 255.08V272.11H273.12V389.18H255.88V281.12L236.53 272.11V255.08H290.55Z" fill="#FF4931"/>
  <path d="M366.8 255.08L346.7 389.18H321.03L300.92 255.08H318.53L329.85 330.57L331.7 342.92H336.02L337.88 330.57L349.19 255.08H366.8Z" fill="#FF4931"/>
  <path d="M424.68 372.12V389.18H382.92V255.08H400.17V372.12H424.68Z" fill="#FF4931"/>
  <path d="M552.77 641.5L572.22 650.55V759.11H589.54V658.63V641.5H607.06V624.37H552.77V641.5Z" fill="#FF4931"/>
  <path d="M642.28 700.21H668.27V683.08H642.28L641.92 641.5H668.84V624.37H636.12H624.96V641.5V651.53V759.11H626.91H668.84H669.45V741.98H642.28V700.21Z" fill="#FF4931"/>
  <path d="M687.35 741.98V759.11H729.89V741.98H704.67V641.5H729.89V624.37H687.35V741.98Z" fill="#FF4931"/>
  <path d="M788.8 624.37V683.08H767.63V624.37H750.3V759.11H767.63V700.21H788.8V759.11H806.12V624.37H788.8Z" fill="#FF4931"/>
</svg>
