<svg width="110" height="38" viewBox="0 0 110 38" fill="none" xmlns="http://www.w3.org/2000/svg">
<path d="M82.4804 32.9702C90.1668 32.9321 96.3858 26.693 96.3858 18.9976C96.3858 11.3022 90.1668 5.06305 82.4804 5.02496V32.9702Z" fill="#3B5446" style="fill:#3B5446;fill:color(display-p3 0.2314 0.3294 0.2745);fill-opacity:1;"/>
<path d="M101.417 27.6809C106.162 27.6585 110 23.8052 110 19.0558C110 14.3064 106.16 10.4531 101.417 10.4307V27.6809Z" fill="#EE7254" style="fill:#EE7254;fill:color(display-p3 0.9333 0.4471 0.3294);fill-opacity:1;"/>
<path d="M31.7694 15.5834C30.6582 14.4117 30.1027 12.9466 30.1027 11.1857C30.1027 9.42486 30.6582 7.95972 31.7694 6.78805C32.8806 5.61638 34.227 5.03167 35.8086 5.03167C36.3463 5.03167 36.8526 5.1056 37.3298 5.2557C37.807 5.4058 38.1923 5.58054 38.4813 5.78216C38.7725 5.98379 39.0257 6.18989 39.243 6.39824C39.4581 6.60659 39.6126 6.78581 39.7023 6.93591L39.8367 7.15994H39.9487V0H42.5228V17.0082H40.0607L39.9487 15.2182H39.8367C39.8075 15.2787 39.7627 15.3571 39.7023 15.4535C39.6418 15.5498 39.4939 15.7178 39.2542 15.9575C39.0145 16.1972 38.7591 16.4078 38.4813 16.596C38.2057 16.7819 37.8249 16.9544 37.341 17.1113C36.8571 17.2681 36.3441 17.3465 35.8086 17.3465C34.227 17.3465 32.8806 16.7618 31.7694 15.5901M38.9204 13.9166C39.6059 13.1997 39.9487 12.2902 39.9487 11.1857C39.9487 10.0813 39.6059 9.17171 38.9204 8.45482C38.2349 7.74017 37.3836 7.38172 36.3687 7.38172C35.3539 7.38172 34.5026 7.74017 33.817 8.45482C33.1315 9.17171 32.7865 10.0813 32.7865 11.1857C32.7865 12.2902 33.1293 13.1997 33.817 13.9166C34.5026 14.6335 35.3539 14.992 36.3687 14.992C37.3836 14.992 38.2326 14.6335 38.9204 13.9166Z" fill="#3B5446" style="fill:#3B5446;fill:color(display-p3 0.2314 0.3294 0.2745);fill-opacity:1;"/>
<path d="M49.4676 5.03168C51.0784 5.03168 52.3217 5.45061 53.1932 6.28623C54.0647 7.12186 54.5015 8.27112 54.5015 9.73178V17.006H52.0395L51.9275 15.216H51.8154C51.7998 15.2765 51.7662 15.3549 51.7146 15.4512C51.6631 15.5476 51.5399 15.7156 51.345 15.9553C51.1501 16.195 50.9305 16.4056 50.6841 16.5938C50.4377 16.7797 50.0837 16.9522 49.62 17.109C49.1585 17.2658 48.6589 17.3443 48.1212 17.3443C46.972 17.3443 46.0333 17.0082 45.3007 16.3384C44.5704 15.6663 44.203 14.8307 44.203 13.8315C44.203 12.7136 44.5861 11.8063 45.3545 11.1118C46.1229 10.4173 47.1937 10.0723 48.5648 10.0723C49.1921 10.0723 49.7835 10.1395 50.3436 10.2739C50.9037 10.4084 51.3024 10.536 51.5421 10.6548L51.923 10.8564V9.84828C51.923 9.05746 51.681 8.45035 51.1949 8.02469C50.711 7.59904 50.021 7.38621 49.1249 7.38621C48.3632 7.38621 47.6284 7.52959 46.9204 7.81186C46.2125 8.09638 45.6928 8.37194 45.3657 8.64077L44.8728 9.06642H44.5368V6.71637C44.6869 6.59763 44.8952 6.44305 45.1641 6.25711C45.4329 6.07117 45.9952 5.82025 46.8532 5.50662C47.7112 5.19298 48.5805 5.03616 49.4609 5.03616M48.6835 15.1017C49.1898 15.1017 49.6469 15.0166 50.0479 14.8441C50.4511 14.6738 50.7625 14.4677 50.9865 14.228C51.2106 13.9883 51.3965 13.7508 51.5466 13.5111C51.6967 13.2714 51.7998 13.0631 51.8602 12.8839L51.9275 12.6374C51.867 12.5769 51.7662 12.503 51.625 12.4134C51.4839 12.3238 51.1613 12.2095 50.6617 12.0662C50.1621 11.925 49.6132 11.8533 49.0173 11.8533C48.3609 11.8533 47.8434 12.0057 47.4626 12.3126C47.0817 12.6195 46.8913 13.025 46.8913 13.5335C46.8913 14.0421 47.0481 14.4274 47.3618 14.6962C47.6754 14.9651 48.1145 15.0995 48.6813 15.0995" fill="#3B5446" style="fill:#3B5446;fill:color(display-p3 0.2314 0.3294 0.2745);fill-opacity:1;"/>
<path d="M57.3601 13.0877V7.71777H55.2341V6.82166L59.8222 1.89752H59.9342V5.36548H63.6262V7.71553H59.9342V12.9735C59.9342 13.6164 60.1022 14.1115 60.4383 14.461C60.7743 14.8127 61.2022 14.9875 61.7242 14.9875C62.0827 14.9875 62.4209 14.9136 62.7435 14.7635C63.0639 14.6134 63.2924 14.4655 63.4268 14.3154L63.6284 14.0914H63.9645V16.3294C63.8906 16.4033 63.7808 16.4974 63.6396 16.6094C63.4985 16.7215 63.1849 16.8716 62.6987 17.0575C62.2148 17.2434 61.704 17.3375 61.1664 17.3375C60.0328 17.3375 59.1143 16.9612 58.4131 16.2084C57.7119 15.4557 57.3624 14.414 57.3624 13.0877" fill="#3B5446" style="fill:#3B5446;fill:color(display-p3 0.2314 0.3294 0.2745);fill-opacity:1;"/>
<path d="M70.3784 5.03168C71.9892 5.03168 73.2325 5.45061 74.104 6.28623C74.9777 7.12186 75.4123 8.27112 75.4123 9.73178V17.006H72.9502L72.8382 15.216H72.7262C72.7105 15.2765 72.6769 15.3549 72.6254 15.4512C72.5739 15.5476 72.4507 15.7156 72.2558 15.9553C72.0631 16.195 71.8413 16.4056 71.5949 16.5938C71.3484 16.7797 70.9945 16.9522 70.533 17.109C70.0692 17.2658 69.5719 17.3443 69.0342 17.3443C67.885 17.3443 66.9463 17.0082 66.2137 16.3384C65.4834 15.6663 65.1182 14.8307 65.1182 13.8315C65.1182 12.7136 65.5013 11.8063 66.2697 11.1118C67.0381 10.4173 68.109 10.0723 69.4823 10.0723C70.1096 10.0723 70.701 10.1395 71.2611 10.2739C71.8211 10.4084 72.2199 10.536 72.4596 10.6548L72.8405 10.8564V9.84828C72.8405 9.05746 72.5985 8.45035 72.1124 8.02469C71.6262 7.59904 70.9385 7.38621 70.0424 7.38621C69.2807 7.38621 68.5459 7.52959 67.8379 7.81186C67.13 8.09638 66.6103 8.37194 66.2832 8.64077L65.7903 9.06642H65.4543V6.71637C65.6044 6.59763 65.8127 6.44305 66.0815 6.25711C66.3504 6.07117 66.9127 5.82025 67.7707 5.50662C68.6287 5.19298 69.498 5.03616 70.3784 5.03616M69.5943 15.1017C70.1006 15.1017 70.5554 15.0166 70.9586 14.8441C71.3619 14.6738 71.6755 14.4677 71.8996 14.2303C72.1236 13.9906 72.3095 13.7531 72.4596 13.5134C72.6097 13.2737 72.7128 13.0653 72.7733 12.8861L72.8405 12.6397C72.78 12.5792 72.6792 12.5053 72.538 12.4156C72.3969 12.326 72.0743 12.2118 71.577 12.0684C71.0774 11.9273 70.5285 11.8556 69.9326 11.8556C69.2762 11.8556 68.7587 12.0079 68.3778 12.3148C67.997 12.6217 67.8066 13.0272 67.8066 13.5358C67.8066 14.0443 67.9634 14.4297 68.277 14.6985C68.5907 14.9673 69.0298 15.1017 69.5965 15.1017" fill="#3B5446" style="fill:#3B5446;fill:color(display-p3 0.2314 0.3294 0.2745);fill-opacity:1;"/>
<path d="M1.66678 31.3169C0.555597 30.1452 7.62939e-06 28.6801 7.62939e-06 26.9192C7.62939e-06 25.1584 0.555597 23.6932 1.66678 22.5215C2.77795 21.3499 4.12436 20.7652 5.706 20.7652C6.24367 20.7652 6.74997 20.8391 7.22715 20.9892C7.70433 21.1393 8.08966 21.314 8.37866 21.5157C8.66989 21.7173 8.92304 21.9234 9.14035 22.1317C9.35542 22.3401 9.51 22.5193 9.59961 22.6694L9.73403 22.8934H9.84604V15.7335H12.4201V32.7417H9.95805L9.84604 30.9517H9.73403C9.7049 31.0122 9.6601 31.0906 9.59961 31.1869C9.53912 31.2833 9.39126 31.4513 9.15155 31.691C8.91184 31.9307 8.65645 32.1413 8.37866 32.3295C8.1031 32.5154 7.72225 32.6879 7.23835 32.8448C6.75445 33.0016 6.24143 33.08 5.706 33.08C4.12436 33.08 2.77795 32.4953 1.66678 31.3236M8.81775 29.6501C9.50328 28.9332 9.84604 28.0237 9.84604 26.9192C9.84604 25.8148 9.50328 24.9052 8.81775 24.1883C8.13223 23.4737 7.28092 23.1152 6.26607 23.1152C5.25123 23.1152 4.39992 23.4737 3.71439 24.1883C3.02887 24.9052 2.68386 25.8148 2.68386 26.9192C2.68386 28.0237 3.02663 28.9332 3.71439 29.6501C4.39992 30.367 5.25123 30.7254 6.26607 30.7254C7.28092 30.7254 8.12999 30.367 8.81775 29.6501Z" fill="#3B5446" style="fill:#3B5446;fill:color(display-p3 0.2314 0.3294 0.2745);fill-opacity:1;"/>
<path d="M14.6358 18.3479C14.3512 18.0791 14.2101 17.7139 14.2101 17.2524C14.2101 16.7909 14.3512 16.4213 14.6358 16.1457C14.918 15.8702 15.2765 15.7313 15.7088 15.7313C16.1412 15.7313 16.5041 15.8702 16.7931 16.1457C17.0844 16.4213 17.23 16.7909 17.23 17.2524C17.23 17.7139 17.0844 18.0813 16.7931 18.3479C16.5019 18.6167 16.1412 18.7512 15.7088 18.7512C15.2765 18.7512 14.918 18.6167 14.6358 18.3479ZM17.0082 20.9892V32.7372H14.4341V20.9892C14.806 21.1393 15.2317 21.2132 15.7088 21.2132C15.9329 21.2132 16.1524 21.1953 16.3697 21.1572C16.5848 21.1191 16.7461 21.0855 16.8514 21.0564L17.0082 20.9892Z" fill="#3B5446" style="fill:#3B5446;fill:color(display-p3 0.2314 0.3294 0.2745);fill-opacity:1;"/>
<path d="M18.9707 25.0172C18.9707 23.8075 19.43 22.7993 20.3462 21.9861C21.2647 21.1729 22.4835 20.7674 24.0046 20.7674C24.437 20.7674 24.847 20.8055 25.2345 20.8794C25.6221 20.9534 25.9066 21.0295 26.0836 21.1035L26.3524 21.2155C26.3681 21.1572 26.3928 21.0743 26.4308 20.969C26.4689 20.8637 26.5697 20.6868 26.7333 20.4314C26.8968 20.1782 27.0917 19.9542 27.3157 19.7593C27.5398 19.5666 27.8646 19.3874 28.2903 19.2216C28.7159 19.0581 29.1886 18.9752 29.7106 18.9752V21.3252C29.3074 21.3252 28.9377 21.3813 28.6017 21.4933C28.2656 21.6053 28.0304 21.7128 27.896 21.8181L27.6944 21.9973C27.7235 22.0265 27.7728 22.069 27.84 22.1205C27.9072 22.1721 28.0147 22.293 28.1648 22.479C28.3149 22.6649 28.4471 22.8666 28.5681 23.0839C28.6868 23.3012 28.7966 23.5834 28.8929 23.9352C28.9892 24.2869 29.0385 24.6476 29.0385 25.0195C29.0385 25.9895 28.7854 26.7691 28.2768 27.3583C27.7705 27.9475 27.0536 28.474 26.1284 28.9355L22.9965 30.5014H25.0105C26.6817 30.5014 27.9184 30.8196 28.7249 31.4536C29.5314 32.0875 29.9324 32.9635 29.9324 34.0836C29.9324 35.2038 29.4373 36.1537 28.4448 36.893C27.4524 37.6322 25.9716 37.9996 24.0024 37.9996C22.0332 37.9996 20.6263 37.7039 19.6943 37.117C18.7624 36.5278 18.2964 35.7773 18.2964 34.8677C18.2964 34.3749 18.4532 33.9246 18.7668 33.5146C19.0805 33.1046 19.4008 32.8179 19.7302 32.6521L20.2006 32.4057H18.8587V31.1758L22.7747 29.1617C22.6694 29.1461 22.5327 29.1214 22.3602 29.0833C22.1877 29.0452 21.8853 28.931 21.4529 28.7361C21.0206 28.5434 20.6352 28.3082 20.3014 28.0326C19.9654 27.7571 19.6607 27.3538 19.3829 26.8251C19.1074 26.2964 18.9685 25.6938 18.9685 25.0239M27.2508 34.0814C27.2508 32.9635 26.2807 32.4034 24.3429 32.4034H22.5529C22.4185 32.4482 22.2505 32.511 22.0488 32.5939C21.8472 32.6767 21.5829 32.8806 21.2535 33.2099C20.9242 33.537 20.7607 33.9044 20.7607 34.3054C20.7607 35.3494 21.8427 35.8714 24.0046 35.8714C25.1225 35.8714 25.9447 35.7078 26.4667 35.3785C26.9887 35.0492 27.2485 34.6168 27.2485 34.0814M22.2258 23.4961C21.7711 23.8993 21.5425 24.4056 21.5425 25.0172C21.5425 25.6288 21.7688 26.1351 22.2258 26.5384C22.6806 26.9416 23.2743 27.1433 24.0046 27.1433C24.7349 27.1433 25.3286 26.9416 25.7834 26.5384C26.2382 26.1351 26.4667 25.6288 26.4667 25.0172C26.4667 24.4056 26.2382 23.8971 25.7834 23.4961C25.3286 23.0928 24.7349 22.8912 24.0046 22.8912C23.2743 22.8912 22.6806 23.0928 22.2258 23.4961Z" fill="#3B5446" style="fill:#3B5446;fill:color(display-p3 0.2314 0.3294 0.2745);fill-opacity:1;"/>
<path d="M31.9061 25.0172C31.9061 23.8075 32.3653 22.7993 33.2816 21.9861C34.2001 21.1729 35.4188 20.7674 36.94 20.7674C37.3724 20.7674 37.7823 20.8055 38.1699 20.8794C38.5575 20.9534 38.842 21.0295 39.0212 21.1035L39.29 21.2155C39.3057 21.1572 39.3304 21.0743 39.3685 20.969C39.4065 20.8637 39.5051 20.6868 39.6709 20.4314C39.8344 20.1782 40.0293 19.9542 40.2534 19.7593C40.4774 19.5666 40.8022 19.3874 41.2279 19.2216C41.6535 19.0581 42.1262 18.9752 42.6482 18.9752V21.3252C42.245 21.3252 41.8753 21.3813 41.5393 21.4933C41.2032 21.6053 40.968 21.7128 40.8336 21.8181L40.632 21.9973C40.6611 22.0265 40.7104 22.069 40.7776 22.1205C40.8448 22.1721 40.9523 22.293 41.1024 22.479C41.2503 22.6649 41.3847 22.8666 41.5057 23.0839C41.6244 23.3012 41.7319 23.5834 41.8305 23.9352C41.9268 24.2869 41.9761 24.6476 41.9761 25.0195C41.9761 25.9895 41.723 26.7691 41.2144 27.3583C40.7059 27.9475 39.9912 28.474 39.066 28.9355L35.9341 30.5014H37.9481C39.6194 30.5014 40.8582 30.8196 41.6625 31.4536C42.469 32.0875 42.87 32.9635 42.87 34.0836C42.87 35.2038 42.3749 36.1537 41.3825 36.893C40.39 37.6322 38.9092 37.9996 36.94 37.9996C34.9708 37.9996 33.5639 37.7039 32.6319 37.117C31.7 36.5278 31.234 35.7773 31.234 34.8677C31.234 34.3749 31.3908 33.9246 31.7045 33.5146C32.0181 33.1046 32.3385 32.8179 32.6678 32.6521L33.1382 32.4057H31.7963V31.1758L35.7123 29.1617C35.607 29.1461 35.4704 29.1214 35.2979 29.0833C35.1254 29.0452 34.8229 28.931 34.3905 28.7361C33.9582 28.5434 33.5728 28.3082 33.239 28.0326C32.903 27.7571 32.5983 27.3538 32.3205 26.8251C32.045 26.2964 31.9061 25.6938 31.9061 25.0239M40.1862 34.0814C40.1862 32.9635 39.2161 32.4034 37.276 32.4034H35.486C35.3516 32.4482 35.1836 32.511 34.982 32.5939C34.7804 32.6767 34.516 32.8806 34.1867 33.2099C33.8574 33.537 33.6938 33.9044 33.6938 34.3054C33.6938 35.3494 34.7759 35.8714 36.9377 35.8714C38.0556 35.8714 38.8778 35.7078 39.3998 35.3785C39.9218 35.0492 40.1817 34.6168 40.1817 34.0814M35.1612 23.4961C34.7064 23.8993 34.4779 24.4056 34.4779 25.0172C34.4779 25.6288 34.7064 26.1351 35.1612 26.5384C35.616 26.9416 36.2097 27.1433 36.94 27.1433C37.6703 27.1433 38.264 26.9416 38.7188 26.5384C39.1735 26.1351 39.4021 25.6288 39.4021 25.0172C39.4021 24.4056 39.1735 23.8971 38.7188 23.4961C38.264 23.0928 37.6703 22.8912 36.94 22.8912C36.2097 22.8912 35.616 23.0928 35.1612 23.4961Z" fill="#3B5446" style="fill:#3B5446;fill:color(display-p3 0.2314 0.3294 0.2745);fill-opacity:1;"/>
<path d="M49.676 20.7652C51.4212 20.7652 52.8079 21.2916 53.8384 22.3423C54.8689 23.393 55.382 24.8313 55.382 26.6504V27.4793H46.0938C46.2125 28.4336 46.6202 29.2133 47.3147 29.8181C48.0092 30.423 48.9434 30.7255 50.124 30.7255C50.646 30.7255 51.1456 30.6784 51.6228 30.5798C52.1 30.4835 52.492 30.3648 52.7967 30.2214C53.1014 30.0803 53.3702 29.9346 53.6032 29.7845C53.8339 29.6344 54.002 29.5157 54.1073 29.4261L54.2641 29.2693H54.6001V31.7313C54.5553 31.7627 54.4881 31.8097 54.3985 31.877C54.3089 31.9442 54.1117 32.0517 53.8048 32.2018C53.4979 32.3519 53.1775 32.4863 52.8415 32.605C52.5055 32.7238 52.0664 32.8313 51.522 32.9299C50.9776 33.0262 50.4153 33.0755 49.8328 33.0755C48.0271 33.0755 46.5441 32.4975 45.3791 31.3415C44.2142 30.1855 43.6339 28.7114 43.6339 26.9215C43.6339 25.1315 44.2187 23.7313 45.3903 22.5462C46.562 21.3611 47.989 20.7674 49.676 20.7674M49.7857 23.1152C48.8605 23.1152 48.0966 23.3437 47.4917 23.7985C46.8868 24.2533 46.4589 24.8089 46.2058 25.4653H52.9199C52.8012 24.7932 52.4718 24.2354 51.9364 23.7873C51.3988 23.3392 50.6841 23.1152 49.788 23.1152" fill="#3B5446" style="fill:#3B5446;fill:color(display-p3 0.2314 0.3294 0.2745);fill-opacity:1;"/>
<path d="M63.102 23.1152C62.7435 23.1152 62.3941 23.2004 62.0491 23.3729C61.7063 23.5431 61.415 23.7492 61.1753 23.9889C60.9356 24.2286 60.7206 24.4661 60.5257 24.7058C60.3308 24.9455 60.1896 25.1472 60.1 25.3107L59.9656 25.5795V32.7395H57.3915V21.1034H59.8536L59.9656 22.8934H60.0776C60.1067 22.8352 60.1493 22.7545 60.2008 22.6582C60.2523 22.5619 60.38 22.3939 60.5817 22.1541C60.7833 21.9144 61.0028 21.7038 61.2426 21.5157C61.48 21.3297 61.7981 21.1572 62.1924 21.0004C62.5867 20.8436 63.0012 20.7652 63.4335 20.7652C63.9264 20.7652 64.3879 20.8391 64.8203 20.9892C65.2527 21.1393 65.5596 21.2872 65.7388 21.4373L66.0076 21.6613L65.4476 23.8993C65.4028 23.8411 65.3266 23.7649 65.2235 23.6753C65.1182 23.5857 64.8606 23.4692 64.4506 23.328C64.0407 23.1869 63.5881 23.1152 63.0975 23.1152" fill="#3B5446" style="fill:#3B5446;fill:color(display-p3 0.2314 0.3294 0.2745);fill-opacity:1;"/>
<path d="M75.7932 29.4933C75.7932 30.6112 75.3899 31.4894 74.5857 32.1234C73.7792 32.7574 72.5425 33.0755 70.8713 33.0755C70.0357 33.0755 69.2448 32.9523 68.4988 32.7059C67.7528 32.4594 67.2151 32.2175 66.8881 31.9778L66.3952 31.6193L67.1793 29.4933C67.298 29.5829 67.4661 29.6949 67.6834 29.8293C67.8984 29.9638 68.3398 30.1475 69.0029 30.3782C69.666 30.609 70.3269 30.7255 70.9833 30.7255C72.4753 30.7255 73.2213 30.2774 73.2213 29.3835C73.2213 28.9803 72.9928 28.6599 72.538 28.4224C72.0833 28.1827 71.5344 27.9901 70.8937 27.84C70.253 27.6921 69.6078 27.5129 68.9581 27.3023C68.3084 27.094 67.7573 26.731 67.3025 26.2158C66.8477 25.7005 66.6192 25.0419 66.6192 24.2354C66.6192 23.2496 67.0023 22.4275 67.7707 21.7621C68.5391 21.099 69.5719 20.7652 70.869 20.7652C71.7047 20.7652 72.4843 20.8951 73.2079 21.1572C73.9315 21.4193 74.449 21.6837 74.7627 21.9525L75.2331 22.3334L74.2272 24.2578C74.1376 24.1682 74.0144 24.0606 73.8576 23.9329C73.7008 23.8052 73.349 23.6394 72.8046 23.4289C72.2603 23.2205 71.689 23.1152 71.0931 23.1152C69.899 23.1152 69.3031 23.5252 69.3031 24.3451C69.3031 24.6879 69.5271 24.9635 69.9752 25.174C70.4232 25.3824 70.9631 25.5616 71.5971 25.7117C72.2311 25.8618 72.8651 26.05 73.4991 26.283C74.1331 26.5137 74.673 26.8991 75.1211 27.4345C75.5691 27.9721 75.7932 28.6577 75.7932 29.4933Z" fill="#3B5446" style="fill:#3B5446;fill:color(display-p3 0.2314 0.3294 0.2745);fill-opacity:1;"/>
</svg>
