<svg width="800" height="480" viewBox="0 0 800 480" fill="none" xmlns="http://www.w3.org/2000/svg">
  <defs>
    <linearGradient id="bgAssistant" x1="80" y1="44" x2="710" y2="448" gradientUnits="userSpaceOnUse">
      <stop stop-color="#F8F7F5"/>
      <stop offset="1" stop-color="#FFF4F0"/>
    </linearGradient>
    <linearGradient id="centerAssistant" x1="316" y1="146" x2="484" y2="334" gradientUnits="userSpaceOnUse">
      <stop stop-color="#171717"/>
      <stop offset="1" stop-color="#2B2B2B"/>
    </linearGradient>
    <linearGradient id="accentAssistant" x1="0" y1="0" x2="1" y2="1">
      <stop stop-color="#FF8B7C"/>
      <stop offset="1" stop-color="#FF4A3D"/>
    </linearGradient>
    <filter id="shadowAssistant" x="0" y="0" width="800" height="480" filterUnits="userSpaceOnUse" color-interpolation-filters="sRGB">
      <feDropShadow dx="0" dy="18" stdDeviation="20" flood-color="#0F0F0F" flood-opacity="0.12"/>
    </filter>
  </defs>
  <rect width="800" height="480" rx="32" fill="url(#bgAssistant)"/>
  <circle cx="118" cy="100" r="54" fill="#FFE3DD"/>
  <circle cx="682" cy="384" r="70" fill="#FFE9E4"/>
  <g filter="url(#shadowAssistant)">
    <rect x="308" y="136" width="184" height="208" rx="28" fill="url(#centerAssistant)"/>
    <rect x="332" y="160" width="136" height="24" rx="12" fill="#2D2D2D"/>
    <circle cx="400" cy="244" r="42" fill="#FFFFFF"/>
    <path d="M400 216V272" stroke="#111111" stroke-width="12" stroke-linecap="round"/>
    <path d="M372 244H428" stroke="#111111" stroke-width="12" stroke-linecap="round"/>
    <circle cx="400" cy="244" r="62" stroke="#FF4A3D" stroke-opacity="0.32" stroke-width="12"/>
    <rect x="344" y="292" width="112" height="24" rx="12" fill="#FFF1EE"/>
    <rect x="372" y="300" width="56" height="8" rx="4" fill="#FF4A3D"/>
    <rect x="116" y="114" width="156" height="92" rx="22" fill="#FFFFFF"/>
    <rect x="140" y="138" width="78" height="14" rx="7" fill="#111111"/>
    <rect x="140" y="166" width="96" height="16" rx="8" fill="#FFD8D1"/>
    <circle cx="238" cy="174" r="14" fill="#FF4A3D"/>
    <rect x="528" y="114" width="156" height="92" rx="22" fill="#FFFFFF"/>
    <rect x="552" y="138" width="74" height="14" rx="7" fill="#111111"/>
    <rect x="552" y="166" width="82" height="16" rx="8" fill="#FFD8D1"/>
    <rect x="636" y="160" width="24" height="24" rx="12" fill="#FF4A3D"/>
    <rect x="116" y="274" width="156" height="92" rx="22" fill="#FFFFFF"/>
    <rect x="140" y="298" width="64" height="14" rx="7" fill="#111111"/>
    <rect x="140" y="326" width="90" height="16" rx="8" fill="#FFD8D1"/>
    <path d="M236 304V336" stroke="#FF4A3D" stroke-width="10" stroke-linecap="round"/>
    <path d="M220 320H252" stroke="#FF4A3D" stroke-width="10" stroke-linecap="round"/>
    <rect x="528" y="274" width="156" height="92" rx="22" fill="#FFFFFF"/>
    <rect x="552" y="298" width="70" height="14" rx="7" fill="#111111"/>
    <rect x="552" y="326" width="92" height="16" rx="8" fill="#FFD8D1"/>
    <path d="M638 300L650 336L668 286" stroke="#FF4A3D" stroke-width="10" stroke-linecap="round" stroke-linejoin="round"/>
  </g>
  <path d="M272 160H308" stroke="#FF4A3D" stroke-width="8" stroke-linecap="round"/>
  <path d="M492 160H528" stroke="#FF4A3D" stroke-width="8" stroke-linecap="round"/>
  <path d="M272 320H308" stroke="#FF4A3D" stroke-width="8" stroke-linecap="round"/>
  <path d="M492 320H528" stroke="#FF4A3D" stroke-width="8" stroke-linecap="round"/>
  <circle cx="290" cy="160" r="8" fill="#FF4A3D"/>
  <circle cx="510" cy="160" r="8" fill="#FF4A3D"/>
  <circle cx="290" cy="320" r="8" fill="#FF4A3D"/>
  <circle cx="510" cy="320" r="8" fill="#FF4A3D"/>
</svg>
