<svg width="800" height="480" viewBox="0 0 800 480" fill="none" xmlns="http://www.w3.org/2000/svg">
  <defs>
    <linearGradient id="bgPrompt" x1="64" y1="36" x2="730" y2="448" gradientUnits="userSpaceOnUse">
      <stop stop-color="#FFF6F3"/>
      <stop offset="1" stop-color="#F7F6F4"/>
    </linearGradient>
    <linearGradient id="chipPrompt" x1="0" y1="0" x2="1" y2="1">
      <stop stop-color="#FF7B6D"/>
      <stop offset="1" stop-color="#FF4A3D"/>
    </linearGradient>
    <filter id="shadowPrompt" x="0" y="0" width="800" height="480" filterUnits="userSpaceOnUse" color-interpolation-filters="sRGB">
      <feDropShadow dx="0" dy="18" stdDeviation="22" flood-color="#0F0F0F" flood-opacity="0.12"/>
    </filter>
  </defs>
  <rect width="800" height="480" rx="32" fill="url(#bgPrompt)"/>
  <circle cx="694" cy="94" r="56" fill="#FFE1DB"/>
  <circle cx="106" cy="388" r="72" fill="#FFEAE4"/>
  <g opacity="0.16" fill="#FF4A3D">
    <circle cx="124" cy="98" r="4"/>
    <circle cx="144" cy="98" r="4"/>
    <circle cx="164" cy="98" r="4"/>
    <circle cx="124" cy="118" r="4"/>
    <circle cx="144" cy="118" r="4"/>
    <circle cx="164" cy="118" r="4"/>
    <circle cx="124" cy="138" r="4"/>
    <circle cx="144" cy="138" r="4"/>
    <circle cx="164" cy="138" r="4"/>
  </g>
  <g filter="url(#shadowPrompt)">
    <rect x="124" y="92" width="552" height="300" rx="28" fill="#FFFFFF"/>
    <rect x="148" y="116" width="238" height="252" rx="22" fill="#111111"/>
    <rect x="172" y="144" width="126" height="18" rx="9" fill="#2B2B2B"/>
    <rect x="172" y="176" width="190" height="58" rx="18" fill="#1C1C1C"/>
    <rect x="190" y="194" width="86" height="14" rx="7" fill="#FFFFFF" fill-opacity="0.92"/>
    <rect x="282" y="194" width="56" height="14" rx="7" fill="url(#chipPrompt)"/>
    <rect x="172" y="248" width="92" height="14" rx="7" fill="#5C5C5C"/>
    <rect x="172" y="272" width="132" height="14" rx="7" fill="#5C5C5C"/>
    <rect x="172" y="302" width="190" height="42" rx="16" fill="#FFF1EE"/>
    <rect x="190" y="316" width="70" height="14" rx="7" fill="#FF4A3D"/>
    <rect x="410" y="116" width="242" height="252" rx="22" fill="#FFF7F5"/>
    <rect x="434" y="142" width="196" height="42" rx="16" fill="#FFFFFF"/>
    <rect x="452" y="156" width="42" height="14" rx="7" fill="#111111"/>
    <rect x="500" y="156" width="58" height="14" rx="7" fill="#FFCEC6"/>
    <rect x="564" y="156" width="48" height="14" rx="7" fill="#FFDCCF"/>
    <rect x="434" y="198" width="88" height="34" rx="17" fill="url(#chipPrompt)"/>
    <rect x="536" y="198" width="80" height="34" rx="17" fill="#FFD9D3"/>
    <rect x="434" y="248" width="160" height="44" rx="18" fill="#FFFFFF"/>
    <rect x="454" y="263" width="56" height="14" rx="7" fill="#111111"/>
    <rect x="434" y="306" width="196" height="38" rx="19" fill="#111111"/>
    <path d="M462 324H556" stroke="#FFFFFF" stroke-width="10" stroke-linecap="round"/>
    <circle cx="588" cy="324" r="10" fill="#FF4A3D"/>
  </g>
  <path d="M376 240H406" stroke="#FF4A3D" stroke-width="10" stroke-linecap="round"/>
  <path d="M392 224L408 240L392 256" stroke="#FF4A3D" stroke-width="10" stroke-linecap="round" stroke-linejoin="round"/>
</svg>
