<svg width="1200" height="700" viewBox="0 0 1200 700" fill="none" xmlns="http://www.w3.org/2000/svg">
  <defs>
    <linearGradient id="flowBg" x1="96" y1="56" x2="1096" y2="632" gradientUnits="userSpaceOnUse">
      <stop stop-color="#FFF7F4"/>
      <stop offset="1" stop-color="#F6F5F2"/>
    </linearGradient>
    <linearGradient id="flowAccent" x1="0" y1="0" x2="1" y2="1">
      <stop stop-color="#FF8A7B"/>
      <stop offset="1" stop-color="#FF4A3D"/>
    </linearGradient>
    <filter id="flowShadow" x="110" y="92" width="980" height="520" filterUnits="userSpaceOnUse" color-interpolation-filters="sRGB">
      <feDropShadow dx="0" dy="20" stdDeviation="24" flood-color="#0F0F0F" flood-opacity="0.11"/>
    </filter>
  </defs>
  <rect width="1200" height="700" rx="36" fill="url(#flowBg)"/>
  <circle cx="116" cy="116" r="80" fill="#FFE5DE"/>
  <circle cx="1080" cy="570" r="88" fill="#FFEDE8"/>

  <g filter="url(#flowShadow)">
    <rect x="160" y="126" width="880" height="452" rx="34" fill="#FFFFFF"/>
    <rect x="212" y="170" width="776" height="364" rx="26" fill="#FBF6F2"/>
    <path d="M254 214H946" stroke="#F0E4DD" stroke-width="4" stroke-linecap="round"/>
  </g>

  <g>
    <rect x="228" y="228" width="148" height="96" rx="24" fill="#FFFFFF" stroke="#EEE1DA" stroke-width="4"/>
    <rect x="254" y="252" width="30" height="30" rx="10" fill="#FFB14A"/>
    <rect x="296" y="258" width="52" height="10" rx="5" fill="#111111"/>
    <rect x="296" y="278" width="40" height="10" rx="5" fill="#D7C8C0"/>
    <rect x="254" y="294" width="94" height="10" rx="5" fill="#EDE1DB"/>
  </g>

  <g>
    <rect x="414" y="228" width="148" height="96" rx="24" fill="#FFF1EE" stroke="#F4D2CB" stroke-width="4"/>
    <rect x="440" y="252" width="30" height="30" rx="10" fill="#FF7D57"/>
    <path d="M486 256H534" stroke="#111111" stroke-width="10" stroke-linecap="round"/>
    <path d="M486 276H520" stroke="#D8C6BE" stroke-width="10" stroke-linecap="round"/>
    <rect x="440" y="294" width="94" height="10" rx="5" fill="#F7D9D3"/>
  </g>

  <g>
    <rect x="600" y="216" width="176" height="120" rx="28" fill="#111111"/>
    <rect x="628" y="246" width="40" height="40" rx="14" fill="url(#flowAccent)"/>
    <circle cx="648" cy="266" r="10" fill="#FFFFFF"/>
    <path d="M686 252H736" stroke="#FFFFFF" stroke-width="10" stroke-linecap="round"/>
    <path d="M686 274H724" stroke="#4A4A4A" stroke-width="10" stroke-linecap="round"/>
    <rect x="628" y="300" width="118" height="12" rx="6" fill="#2A2A2A"/>
  </g>

  <g>
    <rect x="814" y="228" width="148" height="96" rx="24" fill="#FFFFFF" stroke="#EEE1DA" stroke-width="4"/>
    <rect x="840" y="252" width="30" height="30" rx="10" fill="#FFD8D0"/>
    <path d="M882 267H930" stroke="#111111" stroke-width="10" stroke-linecap="round"/>
    <path d="M882 287H916" stroke="#D8C6BE" stroke-width="10" stroke-linecap="round"/>
    <rect x="840" y="294" width="94" height="10" rx="5" fill="#EDE1DB"/>
  </g>

  <g>
    <rect x="888" y="382" width="118" height="92" rx="24" fill="#111111"/>
    <rect x="914" y="410" width="66" height="12" rx="6" fill="#FFFFFF"/>
    <rect x="914" y="434" width="48" height="12" rx="6" fill="#4A4A4A"/>
    <rect x="914" y="458" width="76" height="10" rx="5" fill="#FF4A3D"/>
  </g>

  <g>
    <rect x="516" y="412" width="130" height="62" rx="20" fill="#FFFFFF" stroke="#EEE1DA" stroke-width="4"/>
    <rect x="542" y="434" width="24" height="24" rx="8" fill="#FFB14A"/>
    <rect x="578" y="440" width="42" height="10" rx="5" fill="#111111"/>
  </g>

  <g>
    <rect x="674" y="412" width="154" height="62" rx="20" fill="#FFF1EE" stroke="#F4D2CB" stroke-width="4"/>
    <rect x="700" y="434" width="24" height="24" rx="8" fill="#FF4A3D"/>
    <rect x="736" y="440" width="58" height="10" rx="5" fill="#111111"/>
  </g>

  <path d="M376 276H414" stroke="#111111" stroke-width="8" stroke-linecap="round"/>
  <path d="M562 276H600" stroke="#111111" stroke-width="8" stroke-linecap="round"/>
  <path d="M776 276H814" stroke="#FF4A3D" stroke-width="8" stroke-linecap="round"/>
  <path d="M962 276C992 276 996 304 996 334V382" stroke="#FF4A3D" stroke-width="8" stroke-linecap="round"/>
  <path d="M688 336V372" stroke="#111111" stroke-width="8" stroke-linecap="round"/>
  <path d="M688 372H581V412" stroke="#111111" stroke-width="8" stroke-linecap="round" stroke-linejoin="round"/>
  <path d="M688 372H751V412" stroke="#111111" stroke-width="8" stroke-linecap="round" stroke-linejoin="round"/>

  <path d="M398 260L414 276L398 292" stroke="#111111" stroke-width="8" stroke-linecap="round" stroke-linejoin="round"/>
  <path d="M584 260L600 276L584 292" stroke="#111111" stroke-width="8" stroke-linecap="round" stroke-linejoin="round"/>
  <path d="M798 260L814 276L798 292" stroke="#FF4A3D" stroke-width="8" stroke-linecap="round" stroke-linejoin="round"/>

  <circle cx="688" cy="372" r="10" fill="#111111"/>
  <circle cx="996" cy="382" r="10" fill="#FF4A3D"/>

  <rect x="250" y="430" width="200" height="34" rx="17" fill="#FFFFFF" stroke="#EEE1DA" stroke-width="4"/>
  <rect x="280" y="442" width="64" height="10" rx="5" fill="#111111"/>
  <rect x="356" y="442" width="58" height="10" rx="5" fill="#FFB14A"/>
</svg>
